<?xml version="1.0" encoding="utf-8"?>
<!-- Generator: Adobe Illustrator 19.2.1, SVG Export Plug-In . SVG Version: 6.00 Build 0)  -->
<svg version="1.1" id="Layer_1" xmlns="http://www.w3.org/2000/svg" xmlns:xlink="http://www.w3.org/1999/xlink" x="0px" y="0px"
	 viewBox="0 0 249.2 100.3" style="enable-background:new 0 0 249.2 100.3;" xml:space="preserve">
<g>
	<g>
		<path d="M0.3,12C9.7,47.9,56,49.3,85.8,52.2c36.1,3.5,73.6,3.4,108.4-8.2c19-6.3,35.1-16.3,46.9-32.7C243.6,8,241.7,3,238.5,1
			c-3.8-2.3-7.9-0.6-10.3,2.7c-18.1,25.1-53,32.3-82.1,34.7c-31.6,2.6-64.7,0-95.8-5.8C35.8,29.9,18.9,23.9,14.7,8
			C12.3-1.3-2.2,2.7,0.3,12L0.3,12z"/>
	</g>
</g>
<g>
	<g>
		<path d="M37.2,43.9c0.3,0,0.5,0,0.8,0c-1.8-0.7-3.5-1.5-5.3-2.2c-0.4-0.6-0.7-1.3-1.1-1.9c0-1.3,0-2.7,0-4
			c-0.7,2.4-4.4,5.6-5.9,7.5c-2.3,2.9-4.5,5.7-6.8,8.6c-4.5,5.7-9,11.5-13.6,17.2c-2.5,3.2-3.1,7.5,0,10.6c2.6,2.6,8.1,3.2,10.6,0
			c7.4-9.4,14.8-18.8,22.2-28.1c3-3.8,7.5-7.8,8.1-12.8c0.6-5.5-3.6-9.7-9-9.9C27.5,28.6,27.5,43.6,37.2,43.9L37.2,43.9z"/>
	</g>
</g>
<g>
	<g>
		<path d="M70.6,48.8c-1.5,15-8.6,28.8-8.2,44.2c0.3,9.6,15.3,9.7,15,0c-0.4-15.1,6.7-29.3,8.2-44.2c0.4-4-3.7-7.5-7.5-7.5
			C73.7,41.3,71,44.8,70.6,48.8L70.6,48.8z"/>
	</g>
</g>
<g>
	<g>
		<path d="M142.4,54.4c-1.2-0.2-0.8-1-0.7,1.4c0,1.3,0,2.5,0.1,3.8c0.1,3.5,0.4,6.9,0.8,10.3c0.8,6.6,2.1,13.1,3.9,19.5
			c2.6,9.3,17.1,5.3,14.5-4c-2.5-8.8-4-17.7-4.2-26.9c-0.2-7.7-0.9-17-10.3-18.7C136.9,38.2,132.9,52.6,142.4,54.4L142.4,54.4z"/>
	</g>
</g>
<g>
	<g>
		<path d="M205.7,39.3c11.3,7.6,21.6,16.4,30.8,26.5c6.6,7.1,17.2-3.5,10.6-10.6c-10.1-10.9-21.5-20.5-33.9-28.8
			C205.3,20.9,197.7,33.9,205.7,39.3L205.7,39.3z"/>
	</g>
</g>
</svg>
