<?xml version="1.0" encoding="utf-8"?>
<!-- Generator: Adobe Illustrator 19.2.1, SVG Export Plug-In . SVG Version: 6.00 Build 0)  -->
<svg version="1.1" id="Layer_1" xmlns="http://www.w3.org/2000/svg" xmlns:xlink="http://www.w3.org/1999/xlink" x="0px" y="0px"
	 viewBox="0 0 61.2 101" style="enable-background:new 0 0 61.2 101;" xml:space="preserve">
<style type="text/css">
	.st0{fill:#F5C720;}
</style>
<g>
	<g>
		<g>
			<path d="M17.4,91.9c-0.8,1.1-2.1,1.8-3.6,1.8c-2,0-3.4-1.2-3.7-3.2h9.5v-0.1c0-4.4-3.1-6.7-6.2-6.7c-1.5,0-3,0.6-4.2,1.7
				c-1.2,1.1-1.9,2.7-1.9,4.5c0,3.6,2.7,6.1,6.4,6.1c2.5,0,4.5-1.1,5.8-3l0.1-0.1L17.4,91.9L17.4,91.9z M10.2,88.6
				c0.4-1.7,1.6-2.8,3.3-2.8c1.7,0,3.1,1.2,3.5,2.8H10.2z"/>
			<path d="M31.1,85.4c-1.2-1.1-2.4-1.6-3.9-1.6c-3.2,0-5.8,2.7-5.8,6.2c0,3.5,2.4,6,5.7,6c1.5,0,3-0.7,4-1.7v1.4
				c0,2.4-2.2,3.1-3.5,3.1c-1.1,0-2.2-0.4-3.1-1.1l-0.1-0.1l-1.6,1.8l0.1,0.1c1.5,1.1,2.8,1.5,4.5,1.5c2.9,0,6.2-1.4,6.2-5.4v-9.3h2
				V84h-4.5V85.4z M27.6,93.7c-2,0-3.4-1.6-3.4-3.8c0-2.1,1.5-3.8,3.5-3.8c2,0,3.5,1.6,3.5,3.8C31.1,92.1,29.6,93.7,27.6,93.7z"/>
			<path class="st0" d="M37.8,86.2h1.8v9.9c0,1.6-0.5,2.2-1.9,2.2c-0.4,0-0.6,0-1.1-0.1l-0.2,0v2.3l0.1,0c0.5,0.1,0.9,0.1,1.3,0.1
				c4.2,0,4.2-2.9,4.2-5.3V84h-4.3V86.2z"/>
			<circle class="st0" cx="40.7" cy="80.3" r="1.5"/>
			<path class="st0" d="M52.9,89.8c-0.9-0.9-2.4-1.1-3.7-1.3c-1.5-0.2-2.5-0.4-2.5-1.2c0-0.8,0.7-1.3,1.9-1.3c1.1,0,1.9,0.4,2.5,1.3
				V88h2.2v-4h-2.2v0.4c-0.7-0.4-1.7-0.6-2.6-0.6c-2.4,0-4.1,1.5-4.1,3.5c0,0.8,0.3,1.7,0.9,2.3c1.1,1.1,2.6,1.3,3.8,1.5
				c1.5,0.2,2.3,0.4,2.3,1.3c0,0.8-0.9,1.3-2.2,1.3c-1.4,0-2.4-0.7-2.6-1.7v-0.5h-2.3v4.2h2.3v-0.5c0.8,0.5,1.7,0.7,2.8,0.7
				c2.7,0,4.5-1.4,4.5-3.6C53.9,91.3,53.6,90.4,52.9,89.8z"/>
		</g>
		<g>
			<g>
				<g>
					<g>
						<path class="st0" d="M32.5,15.2c0.2-1.5-0.1-3.1-0.8-4.5l-1.2-2.2c-1.1-2-0.4-4.4,1.6-5.5c0.8-0.4,1.1-1.4,0.6-2.2
							c-0.4-0.8-1.4-1.1-2.2-0.6c-3.5,1.9-4.8,6.4-2.8,9.9l1.2,2.2c0.5,0.9,0.6,2,0.4,3c0.5,0.1,0.9,0.2,1.4,0.4
							C31.2,15.4,31.9,15.3,32.5,15.2z"/>
						<path class="st0" d="M22.2,65c-0.1,0.6-0.2,1.3-0.2,1.9c0,4.7,3.8,8.5,8.5,8.5c4.7,0,8.5-3.8,8.5-8.5c0-0.6-0.1-1.2-0.2-1.8
							c-2.5,1.2-5.3,1.8-8.2,1.8C27.6,66.9,24.7,66.3,22.2,65z"/>
						<path class="st0" d="M6.5,28.5c-0.3,0-0.5-0.1-0.8-0.1c-3.1,0-5.7,2.5-5.7,5.7c0,3.1,2.5,5.7,5.7,5.7c0.3,0,0.6,0,0.8-0.1
							C6,37.9,5.7,36,5.7,34.1C5.7,32.1,6,30.2,6.5,28.5z"/>
						<path class="st0" d="M55.6,28.4c-0.3,0-0.6,0-0.8,0.1c0.5,1.8,0.8,3.7,0.8,5.6c0,1.9-0.3,3.8-0.8,5.6c0.3,0,0.5,0.1,0.8,0.1
							c3.1,0,5.7-2.5,5.7-5.7C61.2,30.9,58.7,28.4,55.6,28.4z"/>
					</g>
					<path class="st0" d="M47.6,34.1c0-6.3-5.1-11.3-11.3-11.3c-2.1,0-4,0.6-5.7,1.5c-1.7-1-3.6-1.5-5.7-1.5
						c-6.3,0-11.3,5.1-11.3,11.3c0,4.4,2.5,8.2,6.2,10.1c-0.4,1.1-0.5,2.3-0.5,3.5c0,6.3,5.1,11.3,11.3,11.3
						C36.9,59,42,53.9,42,47.7c0-1.2-0.2-2.4-0.5-3.5C45.1,42.3,47.6,38.5,47.6,34.1z"/>
				</g>
				<circle cx="36.3" cy="37.5" r="1.1"/>
				<circle cx="24.9" cy="37.5" r="1.1"/>
			</g>
		</g>
	</g>
</g>
</svg>
