<?xml version="1.0" encoding="utf-8"?>
<!-- Generator: Adobe Illustrator 19.2.1, SVG Export Plug-In . SVG Version: 6.00 Build 0)  -->
<svg version="1.1" id="Layer_1" xmlns="http://www.w3.org/2000/svg" xmlns:xlink="http://www.w3.org/1999/xlink" x="0px" y="0px"
	 viewBox="0 0 157.7 75.4" style="enable-background:new 0 0 157.7 75.4;" xml:space="preserve">
<style type="text/css">
	.st0{fill:#F5C720;}
</style>
<g>
	<g>
		<g>
			<path d="M90.8,42.9c-1.5,2.1-3.8,3.3-6.5,3.3c-3.7,0-6.2-2.1-6.8-5.9h17.4V40c0-8.1-5.7-12.3-11.3-12.3c-2.8,0-5.6,1.1-7.7,3
				c-2.3,2.1-3.5,5-3.5,8.2c0,6.5,5,11.2,11.8,11.2c4.6,0,8.3-2,10.6-5.5l0.2-0.2l-4.1-1.8L90.8,42.9z M77.6,36.8
				c0.7-3.2,3-5.2,6-5.2c3.1,0,5.8,2.2,6.5,5.2H77.6z"/>
			<path d="M115.8,31c-2.1-2-4.4-3-7.1-3c-5.9,0-10.5,5-10.5,11.3c0,6.3,4.4,10.9,10.4,10.9c2.8,0,5.5-1.2,7.3-3.1v2.5
				c0,4.5-4,5.6-6.4,5.6c-2.1,0-4-0.7-5.7-2.1l-0.2-0.1l-3,3.4l0.2,0.2c2.8,2.1,5.1,2.8,8.3,2.8c5.3,0,11.4-2.6,11.4-9.9V32.5h3.7
				v-4.1h-8.3V31z M109.3,46.2c-3.7,0-6.3-2.8-6.3-6.9c0-3.9,2.7-6.9,6.3-6.9c3.7,0,6.4,3,6.4,6.9C115.9,43.2,113.1,46.2,109.3,46.2
				z"/>
			<path class="st0" d="M128,32.5h3.2v18.2c0,3-0.9,4-3.4,4c-0.7,0-1.1,0-2-0.2l-0.3,0v4.2l0.2,0c0.9,0.2,1.6,0.2,2.4,0.2
				c7.7,0,7.7-5.4,7.7-9.7V28.4H128V32.5z"/>
			<circle class="st0" cx="133.4" cy="21.6" r="2.7"/>
			<path class="st0" d="M155.8,38.9c-1.7-1.7-4.4-2.1-6.8-2.5c-2.8-0.4-4.5-0.7-4.5-2.3c0-1.4,1.3-2.3,3.4-2.3c2,0,3.5,0.8,4.6,2.4
				v1.4h4.1v-7.4h-4.1v0.7c-1.4-0.7-3.1-1-4.8-1c-4.4,0-7.6,2.7-7.6,6.4c0,1.5,0.6,3.1,1.7,4.1c2,2,4.8,2.4,7,2.7
				c2.7,0.4,4.2,0.7,4.2,2.4c0,1.4-1.6,2.3-4,2.3c-2.6,0-4.4-1.2-4.7-3.1V42h-4.2v7.6h4.2v-0.9c1.5,0.9,3.1,1.3,5.2,1.3
				c4.9,0,8.2-2.6,8.2-6.6C157.7,41.7,157,40.1,155.8,38.9z"/>
		</g>
		<g>
			<g>
				<g>
					<path class="st0" d="M32.5,15.2c0.2-1.5-0.1-3.1-0.8-4.5l-1.2-2.2c-1.1-2-0.4-4.4,1.6-5.5c0.8-0.4,1.1-1.4,0.6-2.2
						c-0.4-0.8-1.4-1.1-2.2-0.6c-3.5,1.9-4.8,6.4-2.8,9.9l1.2,2.2c0.5,0.9,0.6,2,0.4,3c0.5,0.1,0.9,0.2,1.4,0.4
						C31.2,15.4,31.9,15.3,32.5,15.2z"/>
					<path class="st0" d="M22.2,65c-0.1,0.6-0.2,1.3-0.2,1.9c0,4.7,3.8,8.5,8.5,8.5c4.7,0,8.5-3.8,8.5-8.5c0-0.6-0.1-1.2-0.2-1.8
						c-2.5,1.2-5.3,1.8-8.2,1.8C27.6,66.9,24.7,66.3,22.2,65z"/>
					<path class="st0" d="M6.5,28.5c-0.3,0-0.5-0.1-0.8-0.1c-3.1,0-5.7,2.5-5.7,5.7c0,3.1,2.5,5.7,5.7,5.7c0.3,0,0.6,0,0.8-0.1
						C6,37.9,5.7,36,5.7,34.1C5.7,32.1,6,30.2,6.5,28.5z"/>
					<path class="st0" d="M55.6,28.4c-0.3,0-0.6,0-0.8,0.1c0.5,1.8,0.8,3.7,0.8,5.6c0,1.9-0.3,3.8-0.8,5.6c0.3,0,0.5,0.1,0.8,0.1
						c3.1,0,5.7-2.5,5.7-5.7C61.2,30.9,58.7,28.4,55.6,28.4z"/>
				</g>
				<path class="st0" d="M47.6,34.1c0-6.3-5.1-11.3-11.3-11.3c-2.1,0-4,0.6-5.7,1.5c-1.7-1-3.6-1.5-5.7-1.5
					c-6.3,0-11.3,5.1-11.3,11.3c0,4.4,2.5,8.2,6.2,10.1c-0.4,1.1-0.5,2.3-0.5,3.5c0,6.3,5.1,11.3,11.3,11.3C36.9,59,42,53.9,42,47.7
					c0-1.2-0.2-2.4-0.5-3.5C45.1,42.3,47.6,38.5,47.6,34.1z"/>
			</g>
			<circle cx="36.3" cy="37.5" r="1.1"/>
			<circle cx="24.9" cy="37.5" r="1.1"/>
		</g>
	</g>
</g>
</svg>
