<?xml version="1.0" encoding="utf-8"?>
<!-- Generator: Adobe Illustrator 19.2.1, SVG Export Plug-In . SVG Version: 6.00 Build 0)  -->
<svg version="1.1" id="Layer_1" xmlns="http://www.w3.org/2000/svg" xmlns:xlink="http://www.w3.org/1999/xlink" x="0px" y="0px"
	 viewBox="0 0 261.8 147" style="enable-background:new 0 0 261.8 147;" xml:space="preserve">
<g>
	<g>
		<path d="M13.9,107.5c16.7-30.6,52-42.1,84.5-46.5c9.6-1.3,19.3-2.1,29-2.9c9.9-0.8,20.1-1.8,30-0.6c9.2,1.2,18.1,4.4,26.9,7.3
			c7.4,2.5,14.7,5,22,7.9c16.4,6.6,31.8,15.6,42.8,29.7c2.5,3.2,8,2.6,10.6,0c3.2-3.1,2.5-7.4,0-10.6
			c-10.6-13.7-25.5-23.2-41.1-30.1c-16.6-7.4-34.8-14.4-52.7-18c-20.7-4.1-43-0.8-63.7,1.7c-20,2.4-39.7,6.4-57.9,15.1
			C26.3,69.2,10.5,82.4,1,99.9C-3.6,108.4,9.3,116,13.9,107.5L13.9,107.5z"/>
	</g>
</g>
<g>
	<g>
		<path d="M131,78.9c-12.8,0.7-23.3,4-30.8,14.9c-6.4,9.4-10.6,22.1-7.9,33.4c2.9,12.2,13,18.6,24.9,19.4
			c11.1,0.8,24.4,0.3,33.6-6.8c17.3-13.4,20.9-49.1-2.5-58.1c-9.6-3.6-21.8-2.7-31.4,0.6c-12.4,4.3-18.6,13.8-20.3,26.5
			c-1.6,11.3-0.9,23.7,10.2,29.9c9.1,5.1,23.5,4.9,33,1.2c5-2,9.5-5.7,11.3-10.9c2-5.8,0.8-13.1,0.1-19.1
			c-1.6-12.6-10.2-21.7-23.5-21.2c-11.4,0.5-21.8,7.5-25.4,18.5c-3.6,10.9,0.7,22.8,10.3,29c8.9,5.8,21.1,6.4,30.7,2
			c11.8-5.3,14.3-18.8,14.1-30.6c-0.1-6.5-2-13.2-6.8-17.8c-4.9-4.7-12.1-5.7-18.6-6.3c-12.7-1.2-25.1,6.4-28.6,19.1
			c-3.3,12.1,3.4,25.5,14.8,30.4c12,5.2,28.6,3.7,36.5-7.5c5.6-7.9-7.4-15.4-13-7.6c-2.9,4.1-12.1,3.2-16.1,1.9
			c-4.9-1.5-8.7-6.5-8.1-11.8c0.6-5.4,5.7-9.4,10.9-9.6c5.9-0.2,13,0.6,13.8,7.4c0.6,4.8,0.3,15.5-4.4,18.4
			c-4.3,2.7-11,2.4-15.5,0.4c-11.7-5.3-5.6-20.7,6-20.8c7.8-0.1,7.9,6.6,8.2,12.9c0.1,2.5,1.4,6.5-0.6,8.4c-2,1.9-6,1.9-8.6,2
			c-4.4,0.3-11.7,1-15-2.8c-3.8-4.2-1.4-13.9,0-18.8c3.3-11,21.5-13.7,30.9-9.7c11.3,4.7,6.2,24.7-0.7,31.2
			c-5.3,5-13.9,4.6-20.6,4.6c-6.8,0-13.7-0.8-15.3-8.5c-1.5-7,1.9-14.8,5.6-20.6c4.5-7,10.8-8.3,18.7-8.7
			C140.6,93.4,140.7,78.4,131,78.9L131,78.9z"/>
	</g>
</g>
<g>
	<g>
		<path d="M18.1,34.5c0.1,16.3,6.5,33.2,21.9,40.7c8.6,4.2,16.2-8.7,7.6-13C36.8,57,33.1,45.9,33.1,34.5
			C33.1,24.9,18.1,24.8,18.1,34.5L18.1,34.5z"/>
	</g>
</g>
<g>
	<g>
		<path d="M85.5,7.2c-0.4,9-0.9,18.1-0.3,27.1c0.5,6.9,0.6,20,10.7,19.1c9.5-0.9,9.6-15.9,0-15c-0.3,0-0.6,0.1-0.9,0.1
			c1.8,0.7,3.5,1.5,5.3,2.2c0.2,0.4,0.5,0.8,0.7,1.3c-0.2-0.9-0.3-1.9-0.4-2.8c-0.1-1.3-0.3-2.6-0.4-3.8c-0.2-3.2-0.3-6.4-0.3-9.7
			c0-6.1,0.3-12.3,0.6-18.4C100.9-2.4,85.9-2.4,85.5,7.2L85.5,7.2z"/>
	</g>
</g>
<g>
	<g>
		<path d="M177.4,13.6c-0.4,12.4-3.7,24.1-9.8,34.9c-4.8,8.4,8.2,16,13,7.6C188,43,192,28.6,192.4,13.6C192.7,4,177.7,4,177.4,13.6
			L177.4,13.6z"/>
	</g>
</g>
<g>
	<g>
		<path d="M245.6,42.2c-3.6,10.2-9.3,19.3-16.8,27.1c-6.7,7,3.9,17.6,10.6,10.6c9.3-9.7,16.2-21,20.6-33.7
			C263.2,37.1,248.7,33.1,245.6,42.2L245.6,42.2z"/>
	</g>
</g>
</svg>
