<svg id="Layer_1" data-name="Layer 1" xmlns="http://www.w3.org/2000/svg" viewBox="0 0 305.33 65.25"><defs><style>.cls-1,.cls-5{fill:#7f8080;stroke-width:0.3px;}.cls-1{stroke:gray;}.cls-2{fill:#54c3f1;}.cls-3{fill:#ec6c6a;}.cls-4{fill:#0672b4;}.cls-5{stroke:#7f8080;}</style></defs><title>billboardjs_gray</title><path class="cls-1" d="M18.33,53.26A15.45,15.45,0,0,1,10.27,51a16.2,16.2,0,0,1-5.77-5.7v7.2H0.15V0.5H5V23.17a20.81,20.81,0,0,1,6-6.06,14.33,14.33,0,0,1,8.2-2.35,14.85,14.85,0,0,1,7,1.64,15.82,15.82,0,0,1,5.28,4.42A19.08,19.08,0,0,1,34.8,27,21,21,0,0,1,36,34.08a20.33,20.33,0,0,1-1.35,7.41,19.25,19.25,0,0,1-3.78,6.13,18.21,18.21,0,0,1-5.63,4.13A16.15,16.15,0,0,1,18.33,53.26ZM17.19,49a12.56,12.56,0,0,0,5.56-1.21,13.84,13.84,0,0,0,4.35-3.35A15.75,15.75,0,0,0,30,39.64,15,15,0,0,0,31,34.08a16.16,16.16,0,0,0-1-5.63,14.35,14.35,0,0,0-2.71-4.78,12.26,12.26,0,0,0-4.13-3.35A11.25,11.25,0,0,0,17.83,19a10.85,10.85,0,0,0-4.13.78,13.18,13.18,0,0,0-3.56,2,17.85,17.85,0,0,0-3,3A17.66,17.66,0,0,0,5,28.3V39.85a8.35,8.35,0,0,0,1.5,3.64,13.5,13.5,0,0,0,3.07,2.85,16.66,16.66,0,0,0,3.78,1.92A11.43,11.43,0,0,0,17.19,49Z" transform="translate(0 -0.35)"/><path class="cls-1" d="M96.87,53.26A15.45,15.45,0,0,1,88.82,51,16.2,16.2,0,0,1,83,45.34v7.2H78.69V0.5h4.85V23.17a20.81,20.81,0,0,1,6-6.06,14.33,14.33,0,0,1,8.2-2.35,14.85,14.85,0,0,1,7,1.64A15.82,15.82,0,0,1,110,20.82a19.08,19.08,0,0,1,3.35,6.2,21,21,0,0,1,1.21,7.06,20.33,20.33,0,0,1-1.35,7.41,19.25,19.25,0,0,1-3.78,6.13,18.21,18.21,0,0,1-5.63,4.13A16.15,16.15,0,0,1,96.87,53.26ZM95.73,49a12.56,12.56,0,0,0,5.56-1.21,13.84,13.84,0,0,0,4.35-3.35,15.75,15.75,0,0,0,2.85-4.78,15,15,0,0,0,1.07-5.56,16.16,16.16,0,0,0-1-5.63,14.35,14.35,0,0,0-2.71-4.78,12.26,12.26,0,0,0-4.13-3.35A11.25,11.25,0,0,0,96.37,19a10.85,10.85,0,0,0-4.13.78,13.18,13.18,0,0,0-3.56,2,17.85,17.85,0,0,0-3,3,17.66,17.66,0,0,0-2.14,3.49V39.85A8.35,8.35,0,0,0,85,43.49a13.5,13.5,0,0,0,3.07,2.85,16.66,16.66,0,0,0,3.78,1.92A11.43,11.43,0,0,0,95.73,49Z" transform="translate(0 -0.35)"/><path class="cls-1" d="M135.37,53.26a18.47,18.47,0,0,1-7.49-1.5,18.36,18.36,0,0,1-9.62-10.34,20,20,0,0,1,3.85-20.89A19.13,19.13,0,0,1,128,16.33a17.58,17.58,0,0,1,7.41-1.57,17.1,17.1,0,0,1,7.34,1.57,18.05,18.05,0,0,1,5.85,4.21,18.62,18.62,0,0,1,3.85,6.13,19.81,19.81,0,0,1,0,14.76,18.62,18.62,0,0,1-3.85,6.13,18.05,18.05,0,0,1-5.85,4.21A17.8,17.8,0,0,1,135.37,53.26ZM121.9,34.15a16.78,16.78,0,0,0,1,5.85,16.83,16.83,0,0,0,2.85,4.71A13.82,13.82,0,0,0,130,47.84,12.54,12.54,0,0,0,135.3,49a12.07,12.07,0,0,0,5.2-1.14,14.56,14.56,0,0,0,4.35-3.21,15.76,15.76,0,0,0,4-10.62,15.58,15.58,0,0,0-1.07-5.77,14.67,14.67,0,0,0-2.92-4.78,13.33,13.33,0,0,0-4.28-3.21,11.48,11.48,0,0,0-5.2-1.21,11.92,11.92,0,0,0-5.28,1.21,13.33,13.33,0,0,0-4.28,3.21A16.32,16.32,0,0,0,123,28.3,15.78,15.78,0,0,0,121.9,34.15Z" transform="translate(0 -0.35)"/><path class="cls-1" d="M168.42,53.26a15.13,15.13,0,0,1-5.2-.86,13,13,0,0,1-4.06-2.5,11.49,11.49,0,0,1-2.57-3.64,10.51,10.51,0,0,1-.93-4.35,9.43,9.43,0,0,1,1.14-4.63A10.64,10.64,0,0,1,160,33.65a15.15,15.15,0,0,1,4.92-2.28,22.78,22.78,0,0,1,6.42-.86,33.86,33.86,0,0,1,5.7.5,25,25,0,0,1,5.2,1.43V29.09a10.5,10.5,0,0,0-2.85-7.77,9.93,9.93,0,0,0-7.56-2.92,16.72,16.72,0,0,0-6,1.14,28.93,28.93,0,0,0-6,3.28l-1.71-3.21A32.23,32.23,0,0,1,165.21,16a21.2,21.2,0,0,1,7.13-1.21q6.77,0,10.77,3.92t4,10.84V46.27q0,2,1.71,2v4.28a8.65,8.65,0,0,1-1.07.07,6.19,6.19,0,0,1-.86.07,4.48,4.48,0,0,1-2.64-.86A3.38,3.38,0,0,1,183,49.26l-0.14-2.92a16.38,16.38,0,0,1-6.42,5.13A19.12,19.12,0,0,1,168.42,53.26Zm1.21-3.71A15.87,15.87,0,0,0,176,48.19,12.71,12.71,0,0,0,181,44.34a8.11,8.11,0,0,0,.86-1.35,3.49,3.49,0,0,0,.36-1.43V35.5a29.5,29.5,0,0,0-5.06-1.43,27.59,27.59,0,0,0-5.13-.5,15.28,15.28,0,0,0-8.48,2.14,6.51,6.51,0,0,0-3.21,5.77,7.8,7.8,0,0,0,.57,2.92A7.6,7.6,0,0,0,162.64,47a9.6,9.6,0,0,0,2.92,1.85A10.53,10.53,0,0,0,169.63,49.55Z" transform="translate(0 -0.35)"/><path class="cls-1" d="M213,19.68a15.25,15.25,0,0,0-8.56,2.71,13.66,13.66,0,0,0-5.13,7.06v23.1h-4.85V15.4H199v8.91a19.14,19.14,0,0,1,5.06-6.49,10.33,10.33,0,0,1,6.77-2.64h1.21a4.89,4.89,0,0,1,.93.07v4.42Z" transform="translate(0 -0.35)"/><path class="cls-1" d="M230.05,53.26a16.31,16.31,0,0,1-7.13-1.57,19.54,19.54,0,0,1-5.7-4.28,20.17,20.17,0,0,1-3.71-6.06,20.92,20.92,0,0,1-1.28-7.27,21.33,21.33,0,0,1,1.28-7.41,20.22,20.22,0,0,1,3.49-6.2,16.7,16.7,0,0,1,5.35-4.13,15.09,15.09,0,0,1,6.84-1.57,14.39,14.39,0,0,1,8.34,2.5,19,19,0,0,1,5.77,5.92V0.5h4.85V46.27q0,2,1.71,2v4.28a11.72,11.72,0,0,1-1.92.21,4.28,4.28,0,0,1-2.92-1,3.32,3.32,0,0,1-1.14-2.5V45.34a16.82,16.82,0,0,1-6.06,5.77A15.33,15.33,0,0,1,230.05,53.26Zm1-4.28a11.43,11.43,0,0,0,3.85-.71,14.64,14.64,0,0,0,6.84-4.85,8,8,0,0,0,1.57-3.64V28.3a11.49,11.49,0,0,0-2.14-3.56,15.62,15.62,0,0,0-3.14-3,14,14,0,0,0-3.71-2,11,11,0,0,0-3.85-.71A11.82,11.82,0,0,0,225,20.32a13.07,13.07,0,0,0-4.13,3.42,16.21,16.21,0,0,0-2.71,4.78,17.06,17.06,0,0,0-.93,5.56,15.39,15.39,0,0,0,1.07,5.7,15.74,15.74,0,0,0,2.92,4.78,14.56,14.56,0,0,0,4.35,3.21A12.69,12.69,0,0,0,231.05,49Z" transform="translate(0 -0.35)"/><path class="cls-1" d="M255.35,52.54v-7h4.13v7h-4.13Z" transform="translate(0 -0.35)"/><path class="cls-1" d="M260.08,65.45a14.83,14.83,0,0,1-4.42-.64,9.71,9.71,0,0,1-3.71-2.14l2.35-3.28a6.13,6.13,0,0,0,2.5,1.35,10.61,10.61,0,0,0,2.71.36,6,6,0,0,0,2.42-.5,6.49,6.49,0,0,0,2.14-1.43,6.6,6.6,0,0,0,1.5-2.07,6.12,6.12,0,0,0,.57-2.64V15.4H271V54.18a11,11,0,0,1-.93,4.56,11.21,11.21,0,0,1-2.5,3.56,10.12,10.12,0,0,1-3.49,2.28,9.73,9.73,0,0,1-4,.86h0Zm6.06-57.82V0.5H271V7.63h-4.85Z" transform="translate(0 -0.35)"/><path class="cls-1" d="M290.71,53.26a25.85,25.85,0,0,1-8.48-1.43,20.39,20.39,0,0,1-7.13-4.13l2.21-3.28a24.39,24.39,0,0,0,6.35,3.85,19,19,0,0,0,7,1.28,12.56,12.56,0,0,0,7.13-1.78,6,6,0,0,0,2.71-5.2,4.31,4.31,0,0,0-.71-2.57,5.93,5.93,0,0,0-2.14-1.85,14.49,14.49,0,0,0-3.49-1.35q-2.07-.64-4.85-1.28-3.21-.78-5.56-1.57a17.84,17.84,0,0,1-3.92-1.78,6.92,6.92,0,0,1-2.28-2.42A8.59,8.59,0,0,1,276.8,26a10.86,10.86,0,0,1,1.07-4.92,10.19,10.19,0,0,1,3-3.49,13.65,13.65,0,0,1,4.42-2.14,20.16,20.16,0,0,1,5.42-.71,20.39,20.39,0,0,1,7.77,1.43,15,15,0,0,1,5.63,3.64l-2.35,2.85a13,13,0,0,0-5.06-3.21,17.7,17.7,0,0,0-6.13-1.07,14.09,14.09,0,0,0-3.56.43A8.45,8.45,0,0,0,284.08,20a6.29,6.29,0,0,0-2.64,5.28,5.11,5.11,0,0,0,.5,2.42,4.5,4.5,0,0,0,1.64,1.64,16.56,16.56,0,0,0,2.85,1.21q1.78,0.5,4.28,1.07,3.56,0.86,6.27,1.71a18.94,18.94,0,0,1,4.49,2,7.78,7.78,0,0,1,2.78,2.78,8,8,0,0,1,.93,4,9.68,9.68,0,0,1-3.92,8.13q-3.92,3-10.55,3h0Z" transform="translate(0 -0.35)"/><rect class="cls-2" x="41.16" y="14.45" width="10.63" height="37.17"/><rect class="cls-3" x="51.73" y="0.44" width="10.63" height="51.18"/><rect class="cls-4" x="62.36" y="0.44" width="10.63" height="51.18"/><rect class="cls-5" x="39.05" y="51.62" width="36" height="1"/></svg>